<svg version="1.0" xmlns="http://www.w3.org/2000/svg" width="1173.333" height="360" viewBox="0 0 880 270"><path d="M563.5 25.7c-1.1.3-3.2 1.7-4.7 3.1-4.1 3.8-4 10 .2 13.5 8.2 7 23 2.8 23-6.5 0-7.8-8.6-12.5-18.5-10.1zm87.1 1.8c-.3.9-.6 8.6-.6 17v15.4l-4.2-1.9c-7.3-3.2-15.6-4.3-22.3-3.1C610.7 57.3 603 63.3 598 75c-2.1 4.7-2.4 7.1-2.4 16 .1 9 .5 11.2 2.5 15.5 4 8.3 7.6 12.3 14.3 15.5 10.9 5.4 25 5 35.3-1l3.3-1.9 1.6 2.5c1.6 2.4 2 2.5 10.8 2.2l9.1-.3v-97l-10.6-.3c-9.1-.2-10.8 0-11.3 1.3zm-2.9 43.7l2.8 1.3.3 12c.1 6.6-.1 14.7-.5 18l-.8 5.9-4.5 1.4c-6.3 1.8-16.3 1.1-19.7-1.4-4.9-3.7-6.8-8.9-6.8-18.4.1-7.1.5-9.2 2.5-12.9 3.6-6.5 7.8-8.4 16.7-7.8 4 .3 8.5 1.1 10 1.9zm153.9-16.1c-6.1.9-16.5 5.3-20.1 8.6-9.5 8.5-13.2 25.7-8.5 39.8 1.6 4.9 3.5 7.8 7.3 11.9 7 7.2 13.6 9.7 27.7 10.4 20 .9 31.6-4.6 38.8-18.3 2.2-4.3 2.7-6.6 3-15.7.4-10.3.3-11-2.6-17.2-5.5-11.7-13.9-17.4-29-19.6-7.6-1.1-8.4-1.1-16.6.1zM819.8 72c4.9 3 7.2 8.8 7.2 18.5 0 14-5.6 21-16.6 20.9-10.2-.2-15.3-5.9-16.2-18.4-.7-9.7 1.7-17.2 6.6-20.5 4.8-3.3 14-3.5 19-.5zM718.1 56.1c-11.4 2-20.1 8.3-25.4 18.4-3 5.7-3.2 6.6-3.2 17 0 10.6.2 11.2 3.5 17.5 4.3 8 9.7 12.2 19.1 15.1 6.1 1.9 8.7 2.1 20.2 1.6 8.3-.3 15.2-1.1 18.5-2.1l5.2-1.7V116c0-3.6-.5-6-1.2-6.2-.6-.2-4.3.2-8.2 1-9.6 1.8-24.3 1.1-28.7-1.4-4-2.4-6.7-6-7.5-10.1l-.6-3.2 10.3.6c24.9 1.4 40-5.9 39.9-19.3 0-4.9-3.1-11.7-6.7-14.9-6.5-5.8-22.5-8.7-35.2-6.4zm14.2 13c4.8 1.3 7.1 4.8 6.3 9.3-1 5.1-6.5 7-18.5 6.4-5-.2-9.3-.6-9.5-.9-1.1-1 1.7-8.9 3.9-10.9 2.5-2.3 8.7-4.9 12-5 1.1 0 3.7.5 5.8 1.1zM467 58.4c0 1.2 7 17.2 15.1 34.4 1.6 3.4 2.9 6.4 2.9 6.6 0 .3 1.8 4.3 4 9s4 8.9 4 9.4.9 2.1 2.1 3.6c2 2.5 2.4 2.6 12.4 2.6 7 0 10.6-.4 11.2-1.3.5-.6 3.6-7.1 6.8-14.2 3.1-7.2 7-15.7 8.5-19 7.5-16.1 13-29 13-30.7 0-1.7-.9-1.8-11.2-1.6l-11.2.3-3.1 9c-1.7 4.9-3.9 11.2-4.9 14-1 2.7-2.6 7.2-3.6 10-1 2.7-2.5 7.1-3.5 9.7-1.8 5.3-3 6-3.8 2.5-.3-1.2-2.8-8.7-5.7-16.7-2.8-8-5.8-16.8-6.6-19.5-3-9.5-2.9-9.5-15.4-9.5-8.6 0-11 .3-11 1.4zm90.5-.2c-.3.7-.4 15.7-.3 33.3l.3 32h22v-66l-10.8-.3c-8.1-.2-10.9.1-11.2 1z"/></svg>